{"title":"The Cure 2014 BRRip x264 AC3-MiLLENiUM","uid":9881806,"size":922207133,"categoryP":"video","categoryS":"movies","magnet":"?xt=urn:btih:033df90d589d1b7a07d42a26da61c01865ddd70a&amp;dn=The+Cure+2014+BRRip+x264+AC3-MiLLENiUM&amp;tr=udp%3A%2F%2Ftracker.openbittorrent.com%3A80&amp;tr=udp%3A%2F%2Fopen.demonii.com%3A1337&amp;tr=udp%3A%2F%2Ftracker.coppersurfer.tk%3A6969&amp;tr=udp%3A%2F%2Fexodus.desync.com%3A6969","seeders":0,"leechers":1,"uploader":"xxxlavalxxx","files":4,"time":1396557833,"description":"poster\n &lt;a href=&quot;\nhttp://i.imgur.com/bziRkVk.jpg&quot; rel=&quot;nofollow&quot; target=&quot;_NEW&quot;&gt;\nhttp://i.imgur.com/bziRkVk.jpg&lt;/a&gt;\n\n &lt;a href=&quot;\nhttp://www.imdb.com/title/tt2175947/&quot; rel=&quot;nofollow&quot; target=&quot;_NEW&quot;&gt;\nhttp://www.imdb.com/title/tt2175947/&lt;/a&gt;\n\n\nThe film is about a young female researcher whose life is in danger when she discovers the pharmaceutical company she works for had developed a cure for cancer many years earlier. They haven't released it because that would destroy their chemotherapy drug sales. She must now escape and release the cure to world while the company tries to stop her. \n\nDirector: David Gould\nWriter: David Gould\nStars: Gabriel Abreu, Gino Acevedo, David Allen\nGenres: Action | Sci-Fi | Thriller\nCountry: USA | New Zealand\nLanguage: English\n\n\n\nThe Cure 2014 BRRip x264 AC3-MiLLENiUM                  \n\nGeneral\n\nSource...............: DL.1080p.BluRay.x264-ENCOUNTERS [THANKS]\nIMDb Information.... : http://www.imdb.com/title/tt2175947/\nSample Included......: yes\n\nGeneral\nComplete name                            : The Cure 2014 BRRip x264 AC3-MiLLENiUM.mkv\nFormat                                   : Matroska\nFormat version                           : Version 2\nFile size                                : 858 MiB\nDuration                                 : 1h 29mn\nOverall bit rate                         : 1 341 Kbps\nEncoded date                             : UTC 2014-04-03 17:51:36\nWriting application                      : mkvmerge v6.8.0 ('Theme for Great Cities') 32bit built on Mar  2 2014 21:27:07\nWriting library                          : libebml v1.3.0 + libmatroska v1.4.1\n\nVideo\nID                                       : 1\nFormat                                   : AVC\nFormat/Info                              : Advanced Video Codec\nFormat profile                           : &lt;a class=&quot;__cf_email__&quot; href=&quot;/cdn-cgi/l/email-protection&quot; data-cfemail=&quot;0c44656b644c403f223d&quot;&gt;[email&amp;#160;protected]&lt;/a&gt;&lt;script cf-hash='f9e31' type=&quot;text/javascript&quot;&gt;\n/* &lt;![CDATA[ */!function(){try{var t=&quot;currentScript&quot;in document?document.currentScript:function(){for(var t=document.getElementsByTagName(&quot;script&quot;),e=t.length;e--;)if(t[e].getAttribute(&quot;cf-hash&quot;))return t[e]}();if(t&amp;&amp;t.previousSibling){var e,r,n,i,c=t.previousSibling,a=c.getAttribute(&quot;data-cfemail&quot;);if(a){for(e=&quot;&quot;,r=parseInt(a.substr(0,2),16),n=2;a.length-n;n+=2)i=parseInt(a.substr(n,2),16)^r,e+=String.fromCharCode(i);e=document.createTextNode(e),c.parentNode.replaceChild(e,c)}}}catch(u){}}();/* ]]&gt; */&lt;/script&gt;\nFormat settings, CABAC                   : Yes\nFormat settings, ReFrames                : 5 frames\nCodec ID                                 : V_MPEG4/ISO/AVC\nDuration                                 : 1h 29mn\nBit rate                                 : 866 Kbps\nWidth                                    : 720 pixels\nHeight                                   : 404 pixels\nDisplay aspect ratio                     : 16:9\nFrame rate mode                          : Constant\nFrame rate                               : 23.976 fps\nColor space                              : YUV\nChroma subsampling                       : 4:2:0\nBit depth                                : 8 bits\nScan type                                : Progressive\nBits/(Pixel*Frame)                       : 0.124\nStream size                              : 555 MiB (65%)\nWriting library                          : x264 core 142 r2409 d6b4e63\n\nAudio\nID                                       : 2\nFormat                                   : AC-3\nFormat/Info                              : Audio Coding 3\nMode extension                           : CM (complete main)\nFormat settings, Endianness              : Big\nCodec ID                                 : A_AC3\nDuration                                 : 1h 29mn\nBit rate mode                            : Constant\nBit rate                                 : 448 Kbps\nChannel(s)                               : 6 channels\nChannel positions                        : Front: L C R, Side: L R, LFE\nSampling rate                            : 48.0 KHz\nBit depth                                : 16 bits\nCompression mode                         : Lossy\nStream size                              : 287 MiB (33%)\nLanguage                                 : English\nDefault                                  : Yes\nForced                                   : No\n\n\n\n\nscreens\n &lt;a href=&quot;\nhttp://i.imgur.com/YJLErHa.png&quot; rel=&quot;nofollow&quot; target=&quot;_NEW&quot;&gt;\nhttp://i.imgur.com/YJLErHa.png&lt;/a&gt; &lt;a href=&quot;\nhttp://i.imgur.com/hAv5YdY.png&quot; rel=&quot;nofollow&quot; target=&quot;_NEW&quot;&gt;\nhttp://i.imgur.com/hAv5YdY.png&lt;/a&gt; &lt;a href=&quot;\nhttp://i.imgur.com/UhqwQpG.png&quot; rel=&quot;nofollow&quot; target=&quot;_NEW&quot;&gt;\nhttp://i.imgur.com/UhqwQpG.png&lt;/a&gt; &lt;a href=&quot;\nhttp://i.imgur.com/TBa1xel.png&quot; rel=&quot;nofollow&quot; target=&quot;_NEW&quot;&gt;\nhttp://i.imgur.com/TBa1xel.png&lt;/a&gt; &lt;a href=&quot;\nhttp://i.imgur.com/kzJxuFI.png&quot; rel=&quot;nofollow&quot; target=&quot;_NEW&quot;&gt;\nhttp://i.imgur.com/kzJxuFI.png&lt;/a&gt;\n","torrent":{"xt":"urn:btih:033df90d589d1b7a07d42a26da61c01865ddd70a","amp;dn":"The+Cure+2014+BRRip+x264+AC3-MiLLENiUM","amp;tr":["udp%3A%2F%2Ftracker.openbittorrent.com%3A80","udp%3A%2F%2Fopen.demonii.com%3A1337","udp%3A%2F%2Ftracker.coppersurfer.tk%3A6969","udp%3A%2F%2Fexodus.desync.com%3A6969"],"infoHash":"033df90d589d1b7a07d42a26da61c01865ddd70a","infoHashBuffer":{"type":"Buffer","data":[3,61,249,13,88,157,27,122,7,212,42,38,218,97,192,24,101,221,215,10]},"announce":[],"urlList":[]}}